PathFileType	4	(X/Y/Z)	C:\Users\WrightLab\Desktop\Jo\P4V131.trc
DataRate	CameraRate	NumFrames	NumMarkers	Units	OrigDataRate	OrigDataStartFrame	OrigNumFrames
100.00	100.00	       13	19	mm	100.00	311	       497
Frame#	Time	Headset_Front			Headset_Back			Headset_Left			Headset_Right			Left_Shoulder			Right_Shoulder			Sternum			C7			Left Elbow			Right Elbow			Left Wrist			Right Wrist			Left ASIS			Right ASIS			S2			Left Knee			Right Knee			Left Ankle			Right Ankle			
		X1	Y1	Z1	X2	Y2	Z2	X3	Y3	Z3	X4	Y4	Z4	X5	Y5	Z5	X6	Y6	Z6	X7	Y7	Z7	X8	Y8	Z8	X9	Y9	Z9	X10	Y10	Z10	X11	Y11	Z11	X12	Y12	Z12	X13	Y13	Z13	X14	Y14	Z14	X15	Y15	Z15	X16	Y16	Z16	X17	Y17	Z17	X18	Y18	Z18	X19	Y19	Z19	

311	3.100	35.31570	1556.54541	1176.61707										193.22679	1542.71423	1244.80164	-110.49457	1515.48364	1222.39307	50.15506	1469.44153	1345.03796				370.38818	1212.60193	1262.76855	-218.90981	1155.32813	1204.57104	375.10934	962.91705	1453.20691	-215.07672	877.40479	1334.74255	236.81734	1031.29199	1316.89966	-95.22679	1034.94043	1352.61230	71.08767	1054.30933	1148.37378	299.55298	558.59680	1244.91870	-61.56548	579.23621	1460.13538	178.08693	280.07974	850.91821	64.35863	90.52549	1455.61584	
312	3.110	33.08514	1558.70947	1187.46143										192.56975	1543.75366	1255.99597	-110.60939	1517.06775	1232.52856	48.68371	1471.09985	1355.54956				369.04877	1213.35596	1275.80750	-221.28688	1157.89246	1214.92944	370.89142	963.22662	1465.01868	-216.49954	880.45410	1347.24451	235.13063	1033.42761	1329.87097	-98.11893	1036.60950	1361.99976	70.49605	1056.78809	1160.23376	299.00595	559.02777	1271.72388	-61.66330	579.35693	1465.90515	181.11760	287.84195	871.72137	64.29905	90.56780	1455.77197	
313	3.120	34.61597	1560.92419	1198.48169										191.98369	1545.78259	1268.74524	-111.69118	1519.05591	1242.69177	47.27877	1472.43896	1366.11743				367.33228	1213.96667	1287.84180	-222.85715	1159.75183	1225.24084	366.33313	963.06824	1475.25232	-217.72777	883.41180	1359.96973	232.48114	1035.92859	1342.30554	-100.67561	1038.40735	1371.15308	69.57777	1057.91895	1169.89319	297.66681	560.06964	1297.32410	-62.23233	579.55060	1471.70398	185.20244	294.05728	892.30481	64.26775	90.64185	1455.92102	
314	3.130	32.53895	1562.57788	1209.00879										191.68756	1546.67542	1279.71277	-112.46018	1521.30310	1252.51208	46.42702	1474.14807	1376.88525				366.42499	1215.15601	1300.34546	-225.30560	1162.56433	1235.53149	361.67905	962.60315	1486.27075	-219.68802	887.52722	1372.62488	229.86353	1038.60486	1354.39661	-103.03107	1039.91235	1380.34851	69.49887	1059.66113	1180.75623	296.43277	561.79388	1323.01782	-63.55208	579.89172	1477.40186	190.50333	298.92435	914.02283	64.10556	91.11404	1455.95691	
315	3.140	31.45193	1566.02368	1219.72791										190.54234	1548.38538	1290.95850	-112.53468	1523.18396	1261.99927	45.06438	1476.06506	1386.73792				364.96893	1216.30164	1313.43713	-227.04765	1164.75562	1246.16443	357.68677	962.67883	1496.33618	-221.10815	891.27783	1385.34045	227.02399	1041.97754	1367.10205	-105.72922	1041.59265	1389.31091	68.90124	1062.00818	1192.53821	295.03952	564.24792	1348.51953	-65.07562	579.95764	1482.80981	195.68839	302.08502	936.45618	64.10932	91.14682	1456.02820	
316	3.150	33.72146	1566.13257	1229.72546										190.31377	1549.87048	1302.41943	-113.15641	1525.25537	1271.18188	43.99876	1478.01428	1398.23279				363.49423	1217.40332	1324.97058	-228.59755	1167.54163	1256.10254	353.30850	963.12518	1507.04626	-222.87917	895.30475	1398.39539	224.71387	1043.23486	1378.13513	-108.37048	1043.34131	1398.12598	68.13197	1063.55725	1201.60828	293.62561	566.84326	1373.42017	-66.28632	579.84363	1487.89063	201.28868	303.89169	960.50006	64.12308	91.22865	1456.05688	
317	3.160	33.44697	1569.40112	1240.07068										189.37917	1551.76440	1313.43274	-113.96671	1527.72449	1280.28418	42.49766	1479.28430	1407.75024				361.88666	1219.17041	1337.14343	-230.48293	1169.85266	1266.45740	348.44849	963.86139	1517.66077	-224.52580	899.52936	1411.32886	222.15999	1046.16028	1390.10522	-110.87350	1045.06726	1406.74353	67.56059	1065.66931	1211.26526	291.65924	569.57666	1399.44275	-67.26487	580.05328	1492.50281	206.74113	304.86295	984.70819	64.14520	91.28462	1456.10205	
318	3.170	30.36848	1571.01990	1249.76428										188.87715	1552.87085	1324.11096	-113.95018	1530.19043	1289.06555	40.85416	1481.64087	1417.38965				360.32050	1219.94995	1347.69653	-231.84767	1172.75562	1275.96448	345.08533	962.92657	1526.93604	-226.48087	904.01831	1424.23779	219.72122	1048.99585	1401.87073	-113.59840	1046.64819	1415.27930	66.84052	1067.85632	1221.01648	289.75958	572.68683	1424.45227	-68.06875	579.74811	1497.04773	212.21835	304.65472	1010.62622	64.15563	91.33747	1456.17249	
319	3.180	29.11144	1573.38550	1259.59875										188.45966	1554.37024	1334.28979	-114.83057	1532.73987	1297.79419	39.69686	1483.75415	1427.86804				358.41922	1221.04089	1359.20825	-233.09708	1175.49353	1285.53284	341.15482	964.61121	1536.29553	-227.82321	908.68622	1437.06152	217.90742	1050.99854	1413.09729	-116.20627	1048.44434	1423.57275	66.14332	1068.68054	1232.63147	286.66479	576.32318	1449.36230	-68.87238	579.63855	1501.08447	216.65036	302.64749	1036.61096	64.20806	91.39784	1456.21692	
320	3.190	31.29890	1574.76624	1269.16626										187.40573	1556.76648	1345.53894	-115.38145	1535.27490	1306.50208	38.31681	1485.33887	1437.24402				356.89630	1222.22571	1369.26721	-235.05235	1178.08093	1295.16211	337.94394	963.24701	1545.48438	-229.66470	913.32599	1449.95300	214.81760	1054.84314	1426.08154	-119.01067	1049.37830	1429.98193	65.88898	1070.96082	1240.72437	282.98825	580.44751	1473.36279	-69.53146	579.64856	1504.67664	220.81003	300.10513	1062.82446	64.17580	91.42829	1456.26196	
321	3.200	31.20080	1576.60071	1278.58472										186.83826	1557.77539	1354.25879	-115.44423	1537.57678	1315.06372	37.12056	1487.36450	1446.34595				355.20752	1223.13477	1380.28235	-236.40089	1181.01196	1304.28394	334.77841	964.12476	1555.57861	-231.49205	917.63373	1462.24756	212.83995	1056.95850	1438.41516	-121.64986	1050.67505	1438.11597	65.85474	1072.82886	1250.44421	278.66971	584.63824	1497.48035	-69.86136	579.46179	1508.03699	225.14627	295.08347	1090.65869	64.07975	91.70344	1456.38623	
322	3.210	28.79738	1578.70215	1288.00098	-11.19653	1700.45020	1558.26416							186.35709	1559.29773	1365.35034	-116.23550	1539.69971	1323.66736	35.77527	1488.71936	1455.11902				353.01782	1224.48169	1389.96814	-238.14951	1183.52100	1313.32983	331.52505	966.69824	1565.25500	-233.35118	922.81860	1475.00342	210.72658	1059.91553	1449.04370	-124.15888	1051.96936	1445.37183	66.48946	1073.46741	1261.21252	273.85693	588.66693	1520.08704	-70.48073	579.38904	1511.12219	228.26961	289.21475	1118.60461	64.03655	91.69854	1456.45935	
323	3.220	31.14928	1579.32166	1297.29736	-13.06429	1701.81604	1568.19958							185.06999	1560.99890	1375.03674	-116.48750	1541.71008	1332.12976	34.37437	1491.07959	1464.10925				351.71155	1225.49194	1400.09631	-239.63602	1185.88452	1322.54529	328.77563	965.54303	1573.90771	-235.34390	927.52258	1487.46753	207.48277	1061.99438	1460.04517	-126.68323	1053.17346	1453.13220	66.52471	1075.04407	1271.91882	268.98254	592.91718	1542.58252	-71.13503	579.32910	1512.64783	231.39680	282.18155	1146.54016	64.09615	91.94061	1457.03149	
